<?xml version="1.0" encoding="utf-8"?>
<!-- Generator: Adobe Illustrator 16.0.0, SVG Export Plug-In . SVG Version: 6.00 Build 0)  -->
<!DOCTYPE svg PUBLIC "-//W3C//DTD SVG 1.1//EN" "http://www.w3.org/Graphics/SVG/1.1/DTD/svg11.dtd">
<svg version="1.1" id="Layer_1" xmlns="http://www.w3.org/2000/svg" xmlns:xlink="http://www.w3.org/1999/xlink" x="0px" y="0px"
	 width="800px" height="120px" viewBox="-655.5 648.5 800 120" enable-background="new -655.5 648.5 800 120" xml:space="preserve">
<g>
	<path fill="#444444" d="M68.094,691.238h-647.185c-1.722-9.068-9.704-15.943-19.267-15.943c-10.81,0-19.604,8.791-19.604,19.6
		c0,5.145,2.038,9.995,5.497,13.589c-3.489,3.621-5.497,8.481-5.497,13.614c0,10.812,8.794,19.607,19.604,19.607
		c9.562,0,17.545-6.879,19.267-15.947H68.094c1.721,9.068,9.701,15.947,19.26,15.947c10.809,0,19.607-8.795,19.607-19.607
		c0-5.137-2.006-9.993-5.498-13.614c3.457-3.594,5.498-8.444,5.498-13.589c0-10.809-8.799-19.6-19.607-19.6
		C77.795,675.295,69.814,682.17,68.094,691.238z M99.643,694.895c0,4.781-2.822,9.164-7.184,11.165
		c-1.332,0.607-2.137,1.926-2.137,3.324c0,0.389,0.059,0.778,0.184,1.161c0.594,1.771,2.428,2.812,4.254,2.417l0.652-0.143
		c2.672,2.317,4.229,5.69,4.229,9.278c0,6.773-5.51,12.287-12.287,12.287c-6.771,0-12.283-5.514-12.283-12.287
		c0-2.021-1.639-3.66-3.66-3.66h-653.818c-2.021,0-3.66,1.639-3.66,3.66c0,6.773-5.514,12.287-12.289,12.287
		c-6.773,0-12.283-5.514-12.283-12.287c0-3.584,1.557-6.957,4.23-9.278l0.653,0.143c1.826,0.396,3.66-0.644,4.253-2.417
		c0.594-1.771-0.25-3.707-1.948-4.485c-4.366-2.001-7.188-6.384-7.188-11.165c0-6.775,5.514-12.286,12.286-12.286
		c6.776,0,12.289,5.511,12.289,12.286c0,2.019,1.64,3.66,3.66,3.66H71.414c2.021,0,3.66-1.642,3.66-3.66
		c0-6.775,5.51-12.286,12.287-12.286C94.133,682.608,99.643,688.122,99.643,694.895z"/>
	
		<line fill="none" stroke="#444444" stroke-width="10.3261" stroke-linecap="round" stroke-miterlimit="10" x1="-455.5" y1="698.5" x2="-455.5" y2="708.5"/>
	
		<line fill="none" stroke="#444444" stroke-width="10.3261" stroke-linecap="round" stroke-miterlimit="10" x1="-430.5" y1="698.5" x2="-430.5" y2="708.5"/>
	
		<line fill="none" stroke="#444444" stroke-width="10.3261" stroke-linecap="round" stroke-miterlimit="10" x1="-405.5" y1="698.5" x2="-405.5" y2="708.5"/>
	
		<line fill="none" stroke="#444444" stroke-width="10.3261" stroke-linecap="round" stroke-miterlimit="10" x1="-105.5" y1="698.5" x2="-105.5" y2="708.5"/>
	
		<line fill="none" stroke="#444444" stroke-width="10.3261" stroke-linecap="round" stroke-miterlimit="10" x1="-80.5" y1="698.5" x2="-80.5" y2="708.5"/>
	
		<line fill="none" stroke="#444444" stroke-width="10.3261" stroke-linecap="round" stroke-miterlimit="10" x1="-55.5" y1="698.5" x2="-55.5" y2="708.5"/>
</g>
</svg>
